Coordinates
version=1
nRows=14
nColumns=36
inDegrees=yes

Units are S.I. units (second, meters, Newtons, ...)
If the header above contains a line with 'inDegrees', this indicates whether rotational values are in degrees (yes) or radians (no).

endheader
time	pelvis_tilt	pelvis_list	pelvis_rotation	pelvis_tx	pelvis_ty	pelvis_tz	hip_flexion_r	hip_adduction_r	hip_rotation_r	knee_angle_r	knee_angle_r_beta	ankle_angle_r	subtalar_angle_r	mtp_angle_r	hip_flexion_l	hip_adduction_l	hip_rotation_l	knee_angle_l	knee_angle_l_beta	ankle_angle_l	subtalar_angle_l	mtp_angle_l	lumbar_extension	lumbar_bending	lumbar_rotation	arm_flex_r	arm_add_r	arm_rot_r	elbow_flex_r	pro_sup_r	arm_flex_l	arm_add_l	arm_rot_l	elbow_flex_l	pro_sup_l
      2.01000000	    -27.34950002	     -2.16416173	     -2.95541117	     -0.25489156	      0.83173971	     -0.52209244	     86.67870543	      0.91676039	      3.11103131	     96.18592685	      1.67876112	     14.33960317	     -7.22432740	     -7.35120939	     83.83318932	    -17.84618548	     12.00474618	     94.29541701	      1.64576550	      8.90456332	    -25.50562426	     -7.35120939	    -30.03428806	      2.17731789	     16.68855414	     82.38696834	    -16.09632074	     29.22393827	    101.89555319	    109.62869592	     70.33967472	    -20.16319172	     21.22925364	    117.87964082	    109.05306194
      2.02000000	    -26.93491164	     -1.67815656	     -2.82053674	     -0.24983960	      0.84512158	     -0.52163010	     84.91374517	      0.94967905	      3.64964043	     94.56792734	      1.65052170	     13.36236653	     -8.00587225	     -7.35434100	     81.71398093	    -17.69422762	     10.91531873	     92.40538340	      1.61277819	      7.88775459	    -25.96241655	     -7.35434100	    -29.59491872	      1.80792825	     16.40577102	     80.16991796	    -15.91522381	     28.62934459	    102.39119304	    109.78414299	     68.04638548	    -20.39306769	     20.80102031	    118.55561484	    109.20103214
      2.03000000	    -26.46647879	     -1.28303174	     -2.74263075	     -0.24464270	      0.85858940	     -0.52117585	     83.06743999	      1.03012126	      4.14585572	     92.91055427	      1.62159508	     12.66433994	     -8.35000651	     -7.35631664	     79.54351846	    -17.59775349	      9.89711335	     90.49470012	      1.57943047	      7.16813279	    -26.03711395	     -7.35631664	    -29.19817338	      1.53344060	     16.38539258	     78.06188419	    -16.06002064	     28.23786877	    103.08657942	    109.93377135	     65.65780188	    -20.52389803	     20.29846039	    119.22635408	    109.29034251
      2.04000000	    -25.99173852	     -0.80377356	     -2.50427219	     -0.23936227	      0.87227621	     -0.52130213	     81.20722352	      0.86495904	      4.75618150	     91.23761442	      1.59239677	     11.98927269	     -8.54794841	     -7.35766815	     77.28706078	    -17.21466063	      8.81997787	     88.43831748	      1.54353983	      6.50570702	    -26.11724803	     -7.35766815	    -28.77343171	      1.29876753	     16.17721441	     75.95678521	    -16.21404955	     27.91433084	    103.79243614	    110.07230421	     63.24643460	    -20.72514195	     19.80669498	    119.89526648	    109.37707652
      2.05000000	    -25.42927453	     -0.19612947	     -2.23313483	     -0.23366433	      0.88621168	     -0.52176222	     79.23655029	      0.54350499	      5.46769248	     89.53139028	      1.56261754	     11.16607752	     -8.84626238	     -7.35933695	     74.86637578	    -16.71091507	      7.54539450	     86.33986457	      1.50691491	      5.66334525	    -26.51636646	     -7.35933695	    -28.32441919	      1.00925251	     15.74360807	     73.65735232	    -16.16477297	     27.47339801	    104.28994370	    110.20598659	     60.69868989	    -21.22112324	     19.27023831	    120.63281258	    109.51059497
      2.06000000	    -24.93655461	      0.42733707	     -2.10801696	     -0.22779154	      0.90004584	     -0.52178597	     77.32442247	      0.37524548	      6.20380317	     87.77310042	      1.53192960	     10.03286270	     -9.57181398	     -7.36390990	     72.49156932	    -16.30888027	      6.25181668	     84.15354461	      1.46875643	      4.14021184	    -27.56782907	     -7.36390990	    -27.71144579	      0.65104336	     15.24230101	     71.43406163	    -15.94885760	     27.28328669	    104.52720189	    110.45230194	     58.03352369	    -22.15415131	     18.71861665	    121.51623059	    109.83781765
      2.07000000	    -24.44447815	      1.05731086	     -2.20979471	     -0.22170983	      0.91382867	     -0.52116991	     75.37698262	      0.42230353	      6.99126515	     85.95195472	      1.50014461	      9.23638442	     -9.98033029	     -7.36696148	     70.04205373	    -16.12786982	      4.91081362	     81.91401904	      1.42966934	      3.45901308	    -27.79852920	     -7.36696148	    -27.02884406	      0.11816046	     15.19200341	     69.13109676	    -16.13715033	     26.99117620	    105.16015583	    110.61775706	     55.53816195	    -22.93300816	     18.32901405	    122.24091748	    110.04997471
      2.08000000	    -23.91889254	      1.61867046	     -2.37948340	     -0.21535444	      0.92775411	     -0.52037088	     73.31999273	      0.52246949	      7.72068512	     84.02747774	      1.46655615	      8.59675215	    -10.33210390	     -7.36858154	     67.50479012	    -16.00915317	      3.60644353	     79.57953755	      1.38892495	      2.88422930	    -27.79685487	     -7.36858154	    -26.32390055	     -0.36979064	     15.34178370	     66.79683678	    -16.58422143	     26.68832943	    106.03003425	    110.74595405	     53.08947366	    -23.78896544	     18.00948406	    123.03896890	    110.18745280
      2.09000000	    -23.22238719	      2.35587913	     -2.32878509	     -0.20872269	      0.94229547	     -0.52032234	     71.03591603	      0.20123856	      8.50019491	     82.03016141	      1.43169640	      7.71562707	    -11.05330866	     -7.37104494	     64.61811092	    -15.41128296	      2.27891854	     76.95655979	      1.34314535	      1.99392841	    -28.13895933	     -7.37104494	    -25.70928701	     -0.90270324	     15.16480651	     64.47368760	    -17.06595273	     26.36475371	    106.82286947	    110.87715789	     50.73042749	    -24.92180175	     17.86237351	    123.79005403	    110.35118335
      2.10000000	    -22.55547183	      2.99569399	     -2.02897083	     -0.20181682	      0.95715048	     -0.52120200	     68.67821124	     -0.45968541	      9.04692134	     79.90044022	      1.39452576	      7.09184696	    -11.38417383	     -7.37243977	     61.73951652	    -14.50375844	      1.27501800	     74.13612028	      1.29391939	      1.15878523	    -28.04569851	     -7.37243977	    -25.01908870	     -1.17760179	     14.88483339	     62.02056119	    -17.78689415	     25.99749823	    108.04030011	    110.92572758	     48.31925880	    -26.08795189	     17.63674648	    124.76527567	    110.47024657
      2.11000000	    -21.84034386	      3.89048139	     -1.80336200	     -0.19459747	      0.97237845	     -0.52213993	     66.30077041	     -1.27470007	      9.79128971	     77.72808332	      1.35661098	      6.06395885	    -12.00388981	     -7.37512480	     58.57957721	    -13.44143483	      0.00786564	     70.97440080	      1.23873698	     -0.13546924	    -28.56603610	     -7.37512480	    -24.26537974	     -1.71714855	     14.55208469	     59.60618420	    -18.55403103	     25.93865464	    109.11959217	    110.85664768	     45.95240576	    -27.62674741	     17.62911115	    125.82024994	    110.56160523
      2.12000000	    -21.14175623	      4.57022892	     -1.79422841	     -0.18690974	      0.98802117	     -0.52231507	     63.86179779	     -1.81371727	     10.38043261	     75.39099620	      1.31582111	      4.93071842	    -12.38734902	     -7.37780118	     55.33853455	    -12.72878962	     -1.11936530	     67.59431935	      1.17974343	     -1.35454941	    -28.64630411	     -7.37780118	    -23.42880960	     -2.12348751	     14.53621532	     57.02909679	    -19.52727053	     25.86873454	    110.73136112	    110.77614799	     43.51231998	    -29.49752037	     17.63157753	    127.28958262	    110.55401596
      2.13000000	    -20.50648294	      5.02559711	     -1.91586651	     -0.17881306	      1.00411368	     -0.52165538	     61.41790478	     -2.10512731	     10.82508131	     72.89732964	      1.27229842	      3.71254073	    -12.41927659	     -7.37926573	     52.12766455	    -12.36763941	     -2.16637435	     64.06574101	      1.11815812	     -2.43344859	    -28.05692172	     -7.37926573	    -22.48675268	     -2.39191315	     14.70502158	     54.26072091	    -20.62392072	     25.67500759	    112.90638661	    110.79415888	     41.02836254	    -31.91545411	     17.75790533	    129.26131492	    110.59736947
      2.14000000	    -19.85156756	      5.56559778	     -2.05211376	     -0.17033533	      1.02091645	     -0.52073770	     58.95609516	     -2.51085846	     11.20884197	     70.24712532	      1.22604363	      1.34150070	    -13.49755850	     -7.38484806	     48.79666687	    -11.95596046	     -3.39930791	     60.23105870	      1.05123029	     -4.42293870	    -27.92298869	     -7.38484806	    -21.49519069	     -2.76821871	     14.66162825	     51.42645942	    -21.66923290	     25.54251918	    115.28245942	    110.40561042	     38.48229340	    -34.96726997	     17.95103409	    131.60111554	    110.06775692
